<svg xmlns="http://www.w3.org/2000/svg" viewBox="0 0 44 44" width="44" height="44" fill="#fff">
  <g transform="translate(3)">
    <path d="m0 3 13 13q0-10 9-13z"/>
    <g transform="translate(6)">
      <path d="m13.7883 0c-.5299 0-.9564.4266-.9564.9564l0 2.4309c-1.2371.3071-2.4279.8014-3.5467 1.4745l-1.7136-1.7136c-.3747-.3747-.9803-.3747-1.3549 0l-3.1083 3.1083c-.3747.3747-.3747.9803 0 1.3549l1.7136 1.7136c-.6678 1.1155-1.1308 2.3198-1.4346 3.5467l-2.4309 0c-.5299 0-.9564.4266-.9564.9564l0 4.3836c0 .5299.4266.9564.9564.9564l2.391 0c.3071 1.2383.8009 2.427 1.4745 3.5467l-1.7136 1.7136c-.3747.3747-.3747.9803 0 1.3549l3.1083 3.1083c.3747.3747.9803.3747 1.3549 0l1.7136-1.7136c1.1237.6777 2.3093 1.1274 3.5467 1.4346l0 2.4309c0 .5299.4266.9564.9564.9564l4.3836 0c.5298 0 .9564-.4266.9564-.9564l0-2.4309c1.24-.3056 2.4252-.7618 3.5467-1.4346l1.7136 1.7136c.3747.3747.9803.3747 1.3549 0l3.1083-3.1083c.3747-.3747.3747-.9803 0-1.3549l-1.7136-1.7136c.6745-1.1177 1.1666-2.316 1.4745-3.5467l2.4309 0c.5299-0 .9564-.4266.9564-.9564l0-4.3836c0-.5299-.4266-.9564-.9564-.9564l-2.4309 0c-.3053-1.2297-.8077-2.4337-1.4745-3.5467l1.7136-1.7136c.3747-.3747.3747-.9803 0-1.3549l-3.1083-3.1083c-.3747-.3747-.9803-.3747-1.3549 0l-1.7136 1.7136c-1.1198-.6722-2.3144-1.1695-3.5467-1.4745l0-2.4309c0-.5299-.4266-.9564-.9564-.9564l-4.3836 0zm2.0324 9.9626c1.5496-.0411 3.13.4829 4.3437 1.6339 2.4274 2.3019 2.541 6.1404.2391 8.5679-2.2962 2.4214-6.1384 2.5269-8.5679.2391-2.4274-2.3019-2.541-6.1404-.2391-8.5679 1.151-1.2137 2.6745-1.8318 4.2242-1.873z">
        <animateTransform attributeName="transform" attributeType="XML" type="rotate" from="0 16 16" to="360 16 16" dur="2s" repeatCount="indefinite"/>
      </path>
      <path d="m4 13 6 0 0 13.65-6 0z"/>
      <path d="m4 23 6.5 0 0 15-6.5 6z"/>
    </g>
  </g>
</svg>
