<svg xmlns="http://www.w3.org/2000/svg" viewBox="0 0 172 44" width="172px" height="44px" fill="#fff">
  <path d="m0 3 13 13q0-10 9-13z"/>
  <g transform="translate(6)">
    <path d="m13.7883 0c-.5299 0-.9564.4266-.9564.9564l0 2.4309c-1.2371.3071-2.4279.8014-3.5467 1.4745l-1.7136-1.7136c-.5716 2.8518-.5716 2.8518-1.3549 0l-3.1083 3.1083c-.3747.3747-.3747.9803 0 1.3549l1.7136 1.7136c-.6678 1.1155-1.1308 2.3198-1.4346 3.5467l-2.4309 0c-.5299 0-.9564.4266-.9564.9564l0 4.3836c0 .5299.4266.9564.9564.9564l2.391 0c.3071 1.2383.8009 2.427 1.4745 3.5467l-1.7136 1.7136c-.3747.3747-.3747.9803 0 1.3549l3.1083 3.1083c.3747.3747.9803.3747 1.3549 0l1.7136-1.7136c1.1237.6777 2.3093 1.1274 3.5467 1.4346l0 2.4309c0 .5299.4266.9564.9564.9564l4.3836 0c.5298 0 .9564-.4266.9564-.9564l0-2.4309c1.24-.3056 2.4252-.7618 3.5467-1.4346l1.7136 1.7136c.3747.3747.9803.3747 1.3549 0l3.1083-3.1083c.3747-.3747.3747-.9803 0-1.3549l-1.7136-1.7136c.6745-1.1177 1.1666-2.316 1.4745-3.5467l2.4309 0c.5299 0 .9564-.4266.9564-.9564l0-4.3836c0-.5299-.4266-.9564-.9564-.9564l-2.4309 0c-.3053-1.2297-.8077-2.4337-1.4745-3.5467l1.7136-1.7136c.3747-.3747.3747-.9803 0-1.3549l-3.1083-3.1083c-.3747-.3747-.9803-.3747-1.3549 0l-1.7136 1.7136c-1.1198-.6722-2.3144-1.1695-3.5467-1.4745l0-2.4309c0-.5299-.4266-.9564-.9564-.9564l-4.3836 0zm2.0324 9.9626c1.5496-.0411 3.13.4829 4.3437 1.6339 2.4274 2.3019 2.541 6.1404.2391 8.5679-2.2962 2.4214-6.1384 2.5269-8.5679.2391-2.4274-2.3019-2.541-6.1404-.2391-8.5679 1.151-1.2137 2.6745-1.8318 4.2242-1.873z"/>
    <path d="m4 13 6 0 0 13.65-6 0z"/>
    <path d="m4 23 6.5 0 0 15-6.5 6z"/>
  </g>
  <path transform="translate(38 16)" d="M8.2983 15.9996c4.3183 0 8.2983-3.184 8.2983-7.7212 0-4.8556-3.4825-8.2784-8.2983-8.2784s-8.2983 3.4228-8.2983 8.2784c0 4.5372 3.98 7.7212 8.2983 7.7212zM8.2983 12.2186c-2.3283 0-4.2387-1.8905-4.2387-3.9601 0-2.587 1.9104-4.4775 4.2387-4.4775s4.2387 1.8905 4.2387 4.4775c0 2.0696-1.9104 3.9601-4.2387 3.9601z"/>
  <path transform="translate(55 16)" d="M4.3248 0l2.7772 10.3244h.0424l3.3496-10.3244h3.3072l3.1376 10.3244h.0424l3.0104-10.3244h4.3248l-5.1092 15.9848h-4.24l-2.7984-9.2644h-.0424l-3.1376 9.2644h-4.2188l-4.77-15.9848h4.3248z"/>
  <path transform="translate(81 16)" d="M9.0948 12.4656h-4.9396v-2.6712h6.6852v-3.5192h-6.6852v-2.756h6.9396v-3.5192h-11.0948v15.9848h11.0948v-3.5192z"/>
  <path transform="translate(94 16)" d="M8.268 9.434l5.0244 6.5508h-5.1728l-3.922-6.148h-.0424v6.148h-4.1552v-15.9848h6.2116c3.1588 0 5.5544 1.5052 5.5544 4.9184 0 2.2048-1.2296 4.1128-3.498 4.5156zM4.1552 3.18v3.9856h.4028c1.3568 0 2.8832-.2544 2.8832-1.9928s-1.5264-1.9928-2.8832-1.9928h-.4028zM13.2924 15.9848"/>
  <path transform="translate(109 16)" d="M0 0 0 23 4 23 4 16 8 16Q16 16 16 8 16 0 8 0M4 8A1 1 0 0112 8 1 1 0 014 8Z"/>
  <path transform="translate(125 16)" d="M11.236 13.2076h-5.724l-1.1024 2.7772h-4.4096l6.148-15.9848h4.5368l6.0208 15.9848h-4.4308zM10.1124 10.0276l-1.696-5.088h-.0424l-1.7172 5.088h3.4556z"/>
  <path transform="translate(143 16)" d="M4.1552 0v12.4656h6.8448v3.5192h-11v-15.9848h4.1552z"/>
  <path transform="translate(155 16)" d="M11.236 13.2076h-5.724l-1.1024 2.7772h-4.4096l6.148-15.9848h4.5368l6.0208 15.9848h-4.4308zM10.1124 10.0276l-1.696-5.088h-.0424l-1.7172 5.088h3.4556z"/>
</svg>
